<mxfile host="drawio-plugin" modified="2022-09-08T20:53:37.325Z" agent="5.0 (X11; Linux x86_64) AppleWebKit/537.36 (KHTML, like Gecko) Chrome/98.0.4758.102 Safari/537.36" etag="U-SAMkjfWa8lT4G7DH3O" version="15.5.4" type="embed"><diagram id="xk0LYboaFIT9QmwzVqD-" name="Page-1"><mxGraphModel dx="1745" dy="1113" grid="0" gridSize="10" guides="1" tooltips="1" connect="1" arrows="1" fold="1" page="0" pageScale="1" pageWidth="827" pageHeight="1169" background="#282A36" math="0" shadow="0"><root><mxCell id="0"/><mxCell id="1" parent="0"/><mxCell id="69" value="" style="rounded=0;whiteSpace=wrap;html=1;strokeColor=none;strokeWidth=3;fillColor=#FF79C6;fontSize=13;fontColor=#F8F8F2;align=right;" parent="1" vertex="1"><mxGeometry x="-627" y="-136.5" width="20" height="20" as="geometry"/></mxCell><mxCell id="70" value="Model" style="text;html=1;resizable=0;points=[];autosize=1;align=left;verticalAlign=middle;spacingTop=-4;fontSize=13;fontColor=#F8F8F2;" parent="1" vertex="1"><mxGeometry x="-605" y="-134.5" width="45" height="16" as="geometry"/></mxCell><mxCell id="71" value="" style="rounded=0;whiteSpace=wrap;html=1;strokeColor=none;strokeWidth=3;fillColor=#BD93F9;fontSize=13;fontColor=#F8F8F2;align=right;" parent="1" vertex="1"><mxGeometry x="-627" y="-107.5" width="20" height="20" as="geometry"/></mxCell><mxCell id="72" value="Abstraction" style="text;html=1;resizable=0;points=[];autosize=1;align=left;verticalAlign=middle;spacingTop=-4;fontSize=13;fontColor=#F8F8F2;" parent="1" vertex="1"><mxGeometry x="-605" y="-105.5" width="75" height="16" as="geometry"/></mxCell><mxCell id="73" value="" style="rounded=0;whiteSpace=wrap;html=1;strokeColor=none;strokeWidth=3;fillColor=#8BE9FD;fontSize=13;fontColor=#F8F8F2;align=right;" parent="1" vertex="1"><mxGeometry x="-627" y="-76.5" width="20" height="20" as="geometry"/></mxCell><mxCell id="74" value="Implementation" style="text;html=1;resizable=0;points=[];autosize=1;align=left;verticalAlign=middle;spacingTop=-4;fontSize=13;fontColor=#F8F8F2;" parent="1" vertex="1"><mxGeometry x="-605" y="-74.5" width="99" height="16" as="geometry"/></mxCell><mxCell id="75" value="" style="rounded=0;whiteSpace=wrap;html=1;strokeColor=none;strokeWidth=3;fillColor=#50FA7B;fontSize=13;fontColor=#F8F8F2;align=right;" parent="1" vertex="1"><mxGeometry x="-627" y="-165.5" width="20" height="20" as="geometry"/></mxCell><mxCell id="76" value="Layer" style="text;html=1;resizable=0;points=[];autosize=1;align=left;verticalAlign=middle;spacingTop=-4;fontSize=13;fontColor=#F8F8F2;" parent="1" vertex="1"><mxGeometry x="-605" y="-163.5" width="43" height="16" as="geometry"/></mxCell><mxCell id="113" value="" style="rounded=0;whiteSpace=wrap;html=1;strokeColor=none;strokeWidth=3;fillColor=#FF5555;fontSize=13;fontColor=#F8F8F2;align=right;" parent="1" vertex="1"><mxGeometry x="-627" y="-45.5" width="20" height="20" as="geometry"/></mxCell><mxCell id="114" value="External Lib" style="text;html=1;resizable=0;points=[];autosize=1;align=left;verticalAlign=middle;spacingTop=-4;fontSize=13;fontColor=#F8F8F2;" parent="1" vertex="1"><mxGeometry x="-605" y="-43.5" width="79" height="16" as="geometry"/></mxCell><mxCell id="153" style="edgeStyle=orthogonalEdgeStyle;rounded=0;orthogonalLoop=1;jettySize=auto;html=1;exitX=0;exitY=0.5;exitDx=0;exitDy=0;entryX=1;entryY=0.5;entryDx=0;entryDy=0;fontSize=13;fontColor=#F8F8F2;strokeWidth=2;strokeColor=#BD93F9;" parent="1" edge="1"><mxGeometry relative="1" as="geometry"><mxPoint x="-102" y="213" as="targetPoint"/></mxGeometry></mxCell><mxCell id="154" style="edgeStyle=orthogonalEdgeStyle;rounded=0;orthogonalLoop=1;jettySize=auto;html=1;exitX=1;exitY=0.5;exitDx=0;exitDy=0;entryX=0;entryY=0.5;entryDx=0;entryDy=0;strokeColor=#BD93F9;strokeWidth=2;fontSize=13;fontColor=#F8F8F2;" parent="1" edge="1"><mxGeometry relative="1" as="geometry"><mxPoint x="94" y="213" as="sourcePoint"/></mxGeometry></mxCell><mxCell id="211" value="ContaCorrenteComum" style="swimlane;fontStyle=1;align=center;verticalAlign=top;childLayout=stackLayout;horizontal=1;startSize=26;horizontalStack=0;resizeParent=1;resizeParentMax=0;resizeLast=0;collapsible=1;marginBottom=0;strokeColor=#FF79C6;fillColor=#FF79C6;" parent="1" vertex="1"><mxGeometry x="-383" y="93" width="207" height="136" as="geometry"/></mxCell><mxCell id="212" value="- gerenciador: GerenciadorDeContas" style="text;strokeColor=none;fillColor=none;align=left;verticalAlign=top;spacingLeft=4;spacingRight=4;overflow=hidden;rotatable=0;points=[[0,0.5],[1,0.5]];portConstraint=eastwest;fontStyle=0;fontColor=#FFFFFF;" parent="211" vertex="1"><mxGeometry y="26" width="207" height="22" as="geometry"/></mxCell><mxCell id="213" value="" style="line;strokeWidth=1;fillColor=none;align=left;verticalAlign=middle;spacingTop=-1;spacingLeft=3;spacingRight=3;rotatable=0;labelPosition=right;points=[];portConstraint=eastwest;strokeColor=#FFFFFF;" parent="211" vertex="1"><mxGeometry y="48" width="207" height="10" as="geometry"/></mxCell><mxCell id="240" value="+ deposita(double: valor): void" style="text;strokeColor=none;fillColor=none;align=left;verticalAlign=top;spacingLeft=4;spacingRight=4;overflow=hidden;rotatable=0;points=[[0,0.5],[1,0.5]];portConstraint=eastwest;fontColor=#FFFFFF;" parent="211" vertex="1"><mxGeometry y="58" width="207" height="26" as="geometry"/></mxCell><mxCell id="242" value="+ saca(double: valor): void" style="text;strokeColor=none;fillColor=none;align=left;verticalAlign=top;spacingLeft=4;spacingRight=4;overflow=hidden;rotatable=0;points=[[0,0.5],[1,0.5]];portConstraint=eastwest;fontColor=#FFFFFF;" parent="211" vertex="1"><mxGeometry y="84" width="207" height="26" as="geometry"/></mxCell><mxCell id="241" value="+ rende(): trows Exception" style="text;strokeColor=none;fillColor=none;align=left;verticalAlign=top;spacingLeft=4;spacingRight=4;overflow=hidden;rotatable=0;points=[[0,0.5],[1,0.5]];portConstraint=eastwest;fontColor=#FFFFFF;" parent="211" vertex="1"><mxGeometry y="110" width="207" height="26" as="geometry"/></mxCell><mxCell id="243" value="GerenciadorDeContas" style="swimlane;fontStyle=1;align=center;verticalAlign=top;childLayout=stackLayout;horizontal=1;startSize=26;horizontalStack=0;resizeParent=1;resizeParentMax=0;resizeLast=0;collapsible=1;marginBottom=0;strokeColor=#FF79C6;fillColor=#FF79C6;" parent="1" vertex="1"><mxGeometry x="-219" y="-126.5" width="190" height="134" as="geometry"/></mxCell><mxCell id="246" value="- saldo: double" style="text;strokeColor=none;fillColor=none;align=left;verticalAlign=top;spacingLeft=4;spacingRight=4;overflow=hidden;rotatable=0;points=[[0,0.5],[1,0.5]];portConstraint=eastwest;fontStyle=0;fontColor=#FFFFFF;" parent="243" vertex="1"><mxGeometry y="26" width="190" height="22" as="geometry"/></mxCell><mxCell id="244" value="" style="line;strokeWidth=1;fillColor=none;align=left;verticalAlign=middle;spacingTop=-1;spacingLeft=3;spacingRight=3;rotatable=0;labelPosition=right;points=[];portConstraint=eastwest;" parent="243" vertex="1"><mxGeometry y="48" width="190" height="8" as="geometry"/></mxCell><mxCell id="248" value="+ saca(double: valor): void" style="text;strokeColor=none;fillColor=none;align=left;verticalAlign=top;spacingLeft=4;spacingRight=4;overflow=hidden;rotatable=0;points=[[0,0.5],[1,0.5]];portConstraint=eastwest;fontColor=#FFFFFF;" parent="243" vertex="1"><mxGeometry y="56" width="190" height="26" as="geometry"/></mxCell><mxCell id="247" value="+ deposita(double: valor): void" style="text;strokeColor=none;fillColor=none;align=left;verticalAlign=top;spacingLeft=4;spacingRight=4;overflow=hidden;rotatable=0;points=[[0,0.5],[1,0.5]];portConstraint=eastwest;fontColor=#FFFFFF;" parent="243" vertex="1"><mxGeometry y="82" width="190" height="26" as="geometry"/></mxCell><mxCell id="249" value="+ rende(double: taxa): void" style="text;strokeColor=none;fillColor=none;align=left;verticalAlign=top;spacingLeft=4;spacingRight=4;overflow=hidden;rotatable=0;points=[[0,0.5],[1,0.5]];portConstraint=eastwest;fontColor=#FFFFFF;" parent="243" vertex="1"><mxGeometry y="108" width="190" height="26" as="geometry"/></mxCell><mxCell id="250" value="ContaSalario" style="swimlane;fontStyle=1;align=center;verticalAlign=top;childLayout=stackLayout;horizontal=1;startSize=26;horizontalStack=0;resizeParent=1;resizeParentMax=0;resizeLast=0;collapsible=1;marginBottom=0;strokeColor=#FF79C6;fillColor=#FF79C6;" parent="1" vertex="1"><mxGeometry x="-83" y="101" width="207" height="110" as="geometry"/></mxCell><mxCell id="251" value="- gerenciador: GerenciadorDeContas" style="text;strokeColor=none;fillColor=none;align=left;verticalAlign=top;spacingLeft=4;spacingRight=4;overflow=hidden;rotatable=0;points=[[0,0.5],[1,0.5]];portConstraint=eastwest;fontStyle=0;fontColor=#FFFFFF;" parent="250" vertex="1"><mxGeometry y="26" width="207" height="22" as="geometry"/></mxCell><mxCell id="252" value="" style="line;strokeWidth=1;fillColor=none;align=left;verticalAlign=middle;spacingTop=-1;spacingLeft=3;spacingRight=3;rotatable=0;labelPosition=right;points=[];portConstraint=eastwest;strokeColor=#FFFFFF;" parent="250" vertex="1"><mxGeometry y="48" width="207" height="10" as="geometry"/></mxCell><mxCell id="253" value="+ deposita(double: valor): void" style="text;strokeColor=none;fillColor=none;align=left;verticalAlign=top;spacingLeft=4;spacingRight=4;overflow=hidden;rotatable=0;points=[[0,0.5],[1,0.5]];portConstraint=eastwest;fontColor=#FFFFFF;" parent="250" vertex="1"><mxGeometry y="58" width="207" height="26" as="geometry"/></mxCell><mxCell id="254" value="+ saca(double: valor): void" style="text;strokeColor=none;fillColor=none;align=left;verticalAlign=top;spacingLeft=4;spacingRight=4;overflow=hidden;rotatable=0;points=[[0,0.5],[1,0.5]];portConstraint=eastwest;fontColor=#FFFFFF;" parent="250" vertex="1"><mxGeometry y="84" width="207" height="26" as="geometry"/></mxCell><mxCell id="256" value="Use" style="endArrow=open;endSize=12;dashed=1;html=1;exitX=0.505;exitY=0.981;exitDx=0;exitDy=0;exitPerimeter=0;entryX=0.5;entryY=0;entryDx=0;entryDy=0;strokeColor=#FF79C6;" parent="1" source="249" target="211" edge="1"><mxGeometry width="160" relative="1" as="geometry"><mxPoint x="-628" y="260" as="sourcePoint"/><mxPoint x="-468" y="260" as="targetPoint"/></mxGeometry></mxCell><mxCell id="257" value="Use" style="endArrow=open;endSize=12;dashed=1;html=1;entryX=0.5;entryY=0;entryDx=0;entryDy=0;strokeColor=#FF79C6;" parent="1" target="250" edge="1"><mxGeometry width="160" relative="1" as="geometry"><mxPoint x="-126" y="7" as="sourcePoint"/><mxPoint x="-280.5" y="111" as="targetPoint"/></mxGeometry></mxCell></root></mxGraphModel></diagram></mxfile>